<svg width="120" height="38" class="c-cinch-logo">
    <path d="M16.5355172,31.0859916 C18.5963611,31.0859916 20.6573229,30.3087529 21.9036035,28.6085432 L22.5744966,28.9485852 C21.1367341,34.0006368 17.5420334,36.9638594 11.886371,36.9638594 C5.36809814,36.9638594 1.17762513e-05,33.028969 1.17762513e-05,24.6738916 C1.17762513e-05,15.5413368 6.37449657,11.8008755 14.13905,11.8008755 C16.6313759,11.8008755 19.6508067,12.1894948 22.7182846,13.4039303 L19.2194426,22.050711 L14.8579902,14.8613723 C14.6183435,14.3754787 14.4266261,14.2298658 13.995262,14.2298658 L13.6597566,14.2298658 C11.0715721,14.2298658 9.77747988,17.5815884 9.77747988,21.9049787 C9.77747988,28.8028529 13.0366752,31.0859916 16.5355172,31.0859916"></path>
    <path d="M42.6742728,24.5219887 C42.6742728,17.0587306 41.3355486,14.4417565 39.1836742,14.4417565 C37.0798469,14.4417565 35.7888165,16.9133565 35.7888165,24.231121 C35.7888165,31.694379 37.1276585,34.3113532 39.2794151,34.3113532 C41.4311717,34.3113532 42.6742728,31.7429565 42.6742728,24.5219887 M25.6518194,24.5219887 C25.6518194,16.5740306 30.5768832,11.8247823 39.3750383,11.8247823 C48.0296408,11.8247823 52.8113876,16.4287758 52.8113876,24.231121 C52.8113876,32.1305016 47.8863238,36.9283274 39.1836742,36.9283274 C30.4334485,36.9283274 25.6518194,32.3729113 25.6518194,24.5219887"></path>
    <path d="M110.524263,25.103569 C110.572075,24.3765787 110.572075,23.7466239 110.572075,23.0196335 C110.572075,14.9748787 105.407953,11.8247465 98.6659313,11.8247465 C91.6370402,11.8247465 86.1381197,15.94404 86.1381197,24.5219529 C86.1381197,32.9059142 91.5414171,36.928411 98.6659313,36.928411 C105.168895,36.928411 108.850622,33.9236529 110.285205,28.4958723 L109.568031,28.2051239 C107.750956,30.4343142 105.360024,31.3353239 102.39547,31.3067981 C99.0337036,31.2743335 96.0541943,29.2339626 95.6625162,24.555611 C95.2229087,16.2304916 96.5217115,14.3285723 98.6181197,14.3449239 C100.721358,14.3612755 101.759317,15.9375948 101.760024,22.2811852 L95.7312895,25.103569 L110.524263,25.103569 Z"></path>
    <path d="M73.1305672,30.5279719 L73.1326869,16.6225365 C72.7501943,15.8956655 71.8416565,15.3141687 70.5984377,15.3141687 C68.3989872,15.3141687 66.2472306,17.1556945 66.2472306,23.7465881 C66.2472306,29.9981558 68.2077409,32.2274655 70.3593798,32.2274655 C71.2679176,32.2274655 72.4708616,31.7430042 73.1305672,30.5279719 L73.1305672,30.5279719 Z M73.128683,36.3493848 L73.1284475,30.5307171 C72.6988499,33.7131945 69.3552188,36.9283752 66.0558665,36.9283752 C61.0352974,36.9283752 56.5405378,33.2936623 56.5405378,24.6189526 C56.5405378,15.2172526 61.848212,11.8247106 67.2992031,11.8247106 C70.2637566,11.8247106 72.1286438,12.8424494 73.1326869,14.1025977 L73.1326869,5.76697516 C73.1326869,5.18535903 73.1326869,5.04010419 72.7980059,4.65232032 L70.789684,2.32609452 L70.789684,1.64768161 L82.3611462,-1.19354838e-05 L82.3611462,32.3728397 C82.3611462,32.9059977 82.3611462,33.0513719 82.6958273,33.3905784 L84.7041492,35.6683461 L84.7041492,36.3499816 L73.128683,36.3493848 Z"></path>
    <path d="M115.254183,3.01470032 C113.042838,3.01470032 111.243662,4.83820355 111.243662,7.07944871 C111.243662,9.32081323 113.042838,11.1443165 115.254183,11.1443165 C117.465527,11.1443165 119.264703,9.32081323 119.264703,7.07944871 C119.264703,4.83820355 117.465527,3.01470032 115.254183,3.01470032 M115.254183,11.8247584 C112.672475,11.8247584 110.572181,9.69606484 110.572181,7.07944871 C110.572181,4.46295194 112.672475,2.33425839 115.254183,2.33425839 C117.83589,2.33425839 119.936184,4.46295194 119.936184,7.07944871 C119.936184,9.69606484 117.83589,11.8247584 115.254183,11.8247584"></path>
    <polygon points="115.254171 6.75349065 114.063003 5.5460971 112.895388 6.72950032 115.254171 9.12005839 117.612954 6.72950032 116.445456 5.5460971"></polygon>
</svg>
